<svg width="550" height="550" viewBox="0 0 550 550" fill="none" xmlns="http://www.w3.org/2000/svg">
<path d="M274.213 84.06C279.775 84.06 284.284 79.551 284.284 73.989V29.071C284.284 23.509 279.775 19 274.213 19C268.651 19 264.142 23.509 264.142 29.071V73.989C264.143 79.551 268.652 84.06 274.213 84.06Z" fill="#09C269"/>
<path d="M520.386 364.985L502.595 347.244C496.266 340.923 487.831 337.441 478.843 337.441C473.096 337.441 467.579 338.871 462.69 341.55L429.164 308.064L430.797 306.433C444.398 292.805 444.393 270.66 430.796 257.078C425.937 252.21 419.874 248.964 413.265 247.598C414.175 244.457 414.654 241.167 414.654 237.8C414.654 228.445 411.02 219.673 404.442 213.122C399.582 208.254 393.52 205.008 386.911 203.642C387.821 200.501 388.3 197.212 388.3 193.844C388.3 184.488 384.666 175.717 378.077 169.156C373.101 164.186 366.984 161.04 360.561 159.701C363.997 147.854 361.061 134.525 351.741 125.189C343.983 117.464 333.456 114.144 323.311 115.22L256.876 102.645C246.744 100.723 234.091 99.4519 226.104 106.737C225.6 107.197 225.086 107.726 224.58 108.315C212.196 103.801 197.752 106.489 187.835 116.395C181.256 122.966 177.632 131.734 177.632 141.084C177.632 144.452 178.109 147.741 179.018 150.883C172.416 152.248 166.361 155.49 161.518 160.342C154.926 166.907 151.291 175.665 151.284 185.004C151.281 188.38 151.76 191.68 152.674 194.83C146.069 196.192 140.01 199.428 135.152 204.28C128.56 210.865 124.93 219.638 124.93 228.983C124.93 236.141 127.067 242.96 131.027 248.72C126.027 250.415 121.447 253.236 117.612 257.067C104.002 270.66 103.997 292.806 117.621 306.454L119.248 308.074L85.718 341.543C73.257 335.676 57.904 337.874 47.621 348.144L29.819 365.896C23.487 372.22 20.001 380.656 20 389.649C20 398.643 23.487 407.08 29.819 413.405L52.036 435.595C55.971 439.526 62.348 439.522 66.278 435.587C70.209 431.652 70.205 425.275 66.27 421.345L44.053 399.155C41.531 396.636 40.142 393.26 40.142 389.65C40.142 386.041 41.531 382.666 44.047 380.153L61.85 362.4C66.298 357.957 73.106 357.295 78.276 360.386C78.64 360.933 79.061 361.453 79.543 361.936C80.406 362.801 81.391 363.464 82.437 363.949L184.53 465.892C185.015 466.949 185.681 467.944 186.55 468.814C187.396 469.661 188.361 470.316 189.385 470.798C191.544 473.239 192.737 476.357 192.737 479.683C192.737 483.293 191.348 486.668 188.826 489.187L171.041 506.951C165.786 512.183 157.238 512.182 151.999 506.967L129.782 484.748C125.849 480.815 119.473 480.815 115.54 484.748C111.607 488.681 111.607 495.057 115.54 498.99L137.773 521.225C144.317 527.742 152.911 530.999 161.509 530.999C170.109 530.999 178.713 527.737 185.265 521.214L203.061 503.439C209.393 497.114 212.88 488.678 212.88 479.683C212.88 473.264 211.095 467.134 207.776 461.848L245.512 424.158C245.552 424.117 245.592 424.076 245.633 424.035C249.954 419.568 261.987 420.404 273.624 421.212C281.892 421.787 291.11 422.426 300.116 421.388L341.44 462.663C338.763 467.544 337.334 473.054 337.334 478.792C337.334 487.777 340.821 496.208 347.153 502.533L364.95 520.308C371.278 526.629 379.713 530.111 388.701 530.111C397.688 530.111 406.123 526.63 412.452 520.308L520.393 412.498C526.725 406.174 530.212 397.738 530.212 388.744C530.211 379.751 526.724 371.315 520.386 364.985V364.985ZM253.126 122.435L296.813 130.704L270.664 156.843C266.619 154.899 261.075 151.273 254.993 145.455C246.668 137.491 240.713 128.296 240.171 122.561C240.17 122.558 240.17 122.555 240.17 122.552C240.17 122.551 240.169 122.55 240.169 122.549C240.13 122.137 240.12 121.808 240.125 121.557C241.442 121.237 244.94 120.882 253.126 122.435ZM202.068 130.646C207.17 125.549 215.096 124.961 220.861 128.865C224.128 142.563 235.813 154.978 241.07 160.008C244.966 163.736 257.467 174.913 270.085 177.985C271.792 180.432 272.721 183.349 272.721 186.427C272.721 190.392 271.196 194.099 268.417 196.875C265.646 199.651 261.933 201.179 257.961 201.179C253.988 201.179 250.275 199.651 247.491 196.862L247.49 196.861L247.485 196.856L202.067 151.52C199.298 148.755 197.773 145.048 197.773 141.084C197.774 137.119 199.299 133.412 202.068 130.646V130.646ZM175.752 174.593C178.523 171.818 182.232 170.289 186.198 170.289C190.169 170.289 193.89 171.821 196.679 174.607L233.251 211.106C239.01 216.874 239.01 226.26 233.271 232.008C230.485 234.783 226.759 236.311 222.78 236.311C218.801 236.311 215.075 234.783 212.301 232.02L212.3 232.019L184.555 204.28C184.512 204.237 184.465 204.197 184.421 204.153L175.741 195.477C172.956 192.695 171.423 188.981 171.426 185.019C171.43 181.07 172.958 177.375 175.752 174.593V174.593ZM149.386 218.531C152.159 215.762 155.876 214.237 159.854 214.237C163.799 214.237 167.484 215.74 170.245 218.461L198.075 246.278C200.85 249.042 202.379 252.745 202.379 256.705C202.379 260.664 200.85 264.367 198.064 267.142C195.292 269.91 191.579 271.435 187.608 271.435C183.631 271.435 179.906 269.906 177.13 267.142L167.041 257.065C167.039 257.062 167.036 257.06 167.034 257.058L149.387 239.432C146.605 236.653 145.073 232.941 145.073 228.981C145.073 225.022 146.605 221.309 149.386 218.531V218.531ZM131.846 271.317C134.631 268.535 138.353 267.003 142.326 267.003C146.298 267.003 150.019 268.534 152.803 271.314L162.906 281.405C165.682 284.169 167.21 287.872 167.21 291.832C167.21 295.792 165.681 299.494 162.885 302.28C160.114 305.055 156.401 306.584 152.429 306.584C148.456 306.584 144.743 305.056 141.952 302.26L140.687 301C140.67 300.983 140.657 300.965 140.641 300.949C140.622 300.931 140.602 300.915 140.583 300.897L131.856 292.204C126.097 286.433 126.092 277.064 131.846 271.317ZM337.08 385.775C333.149 381.839 326.772 381.836 322.838 385.766L313.878 394.715C305.364 403.229 289.937 402.157 275.018 401.122C258.817 399.996 242.064 398.834 231.223 409.964L194.128 447.014L101.365 354.387L134.193 321.618C139.619 324.944 145.88 326.727 152.431 326.727C161.79 326.727 170.566 323.099 177.121 316.532C183.72 309.96 187.355 301.189 187.355 291.833C187.355 291.746 187.349 291.66 187.349 291.573C187.436 291.574 187.523 291.579 187.61 291.579C196.956 291.579 205.725 287.962 212.289 281.406C218.888 274.834 222.523 266.062 222.523 256.707C222.523 256.62 222.517 256.534 222.517 256.447C222.605 256.447 222.693 256.453 222.782 256.453C232.125 256.453 240.899 252.84 247.507 246.259C254.367 239.388 257.76 230.342 257.695 221.315C257.785 221.316 257.875 221.321 257.965 221.321C267.324 221.32 276.099 217.693 282.664 211.116C289.243 204.545 292.867 195.777 292.867 186.427C292.867 179.888 291.089 173.637 287.774 168.222L316.547 139.461C318.691 137.326 321.335 135.986 324.106 135.433C324.406 135.401 324.702 135.353 324.995 135.295C329.441 134.682 334.11 136.054 337.51 139.44C343.269 145.209 343.269 154.595 337.531 160.343L328.768 169.07C328.739 169.099 328.708 169.125 328.679 169.154L318.586 179.23C314.65 183.16 314.646 189.537 318.577 193.472C322.509 197.408 328.885 197.411 332.819 193.481L341.617 184.695C341.619 184.693 341.621 184.691 341.623 184.689L342.953 183.364C348.728 177.642 358.084 177.654 363.853 183.415C366.629 186.179 368.158 189.882 368.158 193.842C368.158 197.801 366.629 201.504 363.831 204.29L355.018 213.121C355.017 213.122 355.016 213.123 355.015 213.125L344.923 223.176C340.982 227.101 340.969 233.478 344.894 237.418C348.819 241.359 355.195 241.371 359.136 237.447L369.274 227.35C372.045 224.574 375.758 223.046 379.73 223.046C383.703 223.046 387.417 224.574 390.208 227.37C392.984 230.135 394.512 233.838 394.512 237.798C394.512 241.757 392.984 245.46 390.192 248.24L372.622 265.817C368.69 269.751 368.691 276.127 372.624 280.059C374.591 282.025 377.167 283.007 379.744 283.007C382.322 283.007 384.9 282.023 386.866 280.056L395.477 271.442C395.526 271.395 395.579 271.354 395.628 271.305C398.399 268.529 402.112 267.001 406.084 267.001C410.057 267.001 413.77 268.529 416.551 271.315C422.304 277.062 422.299 286.432 416.551 292.19L407.796 300.935C407.793 300.938 407.789 300.941 407.786 300.944C407.783 300.947 407.78 300.951 407.777 300.954L393.881 314.833C389.946 318.764 389.942 325.141 393.872 329.076C395.839 331.045 398.419 332.03 400.998 332.03C403.573 332.03 406.149 331.048 408.115 329.085L414.912 322.296L447.489 354.835L354.734 447.477L321.5 414.283C323.817 412.793 326.034 411.041 328.115 408.96L337.07 400.016C341.007 396.087 341.011 389.71 337.08 385.775V385.775ZM506.158 398.247L398.217 506.057C395.692 508.579 392.312 509.968 388.7 509.968C385.088 509.968 381.708 508.579 379.182 506.056L361.385 488.281C358.863 485.763 357.474 482.393 357.474 478.792C357.474 475.192 358.863 471.822 361.385 469.303L469.326 361.493C471.852 358.97 475.231 357.581 478.844 357.581C482.456 357.581 485.836 358.97 488.368 361.499L506.159 379.24C508.681 381.759 510.07 385.133 510.07 388.743C510.069 392.354 508.68 395.729 506.158 398.247V398.247Z" fill="#09C269"/>
<path d="M140.484 75.57C142.45 77.532 145.024 78.512 147.598 78.512C150.178 78.512 152.759 77.526 154.726 75.555C158.655 71.618 158.649 65.242 154.712 61.313L118.014 24.688C114.078 20.759 107.701 20.764 103.772 24.702C99.8429 28.639 99.8489 35.015 103.786 38.944L140.484 75.57Z" fill="#09C269"/>
<path d="M400.828 78.512C403.403 78.512 405.979 77.53 407.945 75.567L444.615 38.941C448.55 35.011 448.554 28.634 444.623 24.699C440.693 20.764 434.317 20.76 430.381 24.691L393.711 61.317C389.776 65.247 389.772 71.624 393.703 75.559C395.67 77.528 398.249 78.512 400.828 78.512Z" fill="#09C269"/>
<path d="M81.9248 452.204C78.0258 456.17 78.0798 462.547 82.0468 466.446L82.0758 466.474C84.0328 468.398 86.5738 469.356 89.1138 469.356C91.7208 469.356 94.3278 468.347 96.3028 466.338C100.202 462.372 100.133 455.981 96.1668 452.082C92.2018 448.183 85.8258 448.238 81.9248 452.204V452.204Z" fill="#09C269"/>
<path d="M361.712 371.267C363.244 371.267 364.798 370.918 366.257 370.183C371.223 367.678 373.218 361.622 370.714 356.656C368.209 351.69 362.152 349.694 357.187 352.199L357.131 352.227C352.165 354.732 350.198 360.774 352.702 365.74C354.47 369.248 358.026 371.267 361.712 371.267V371.267Z" fill="#09C269"/>
</svg>
