<svg width="550" height="550" viewBox="0 0 550 550" fill="none" xmlns="http://www.w3.org/2000/svg">
<path d="M491 51H59C45.7461 51 35 61.7461 35 75V379C35 392.254 45.7461 403 59 403H201.938L195.938 451H187C182.582 451 179 454.582 179 459V483H147V499H403V483H371V459C371 454.582 367.418 451 363 451H354.062L348.062 403H491C504.254 403 515 392.254 515 379V75C515 61.7461 504.254 51 491 51ZM59 67H491C495.418 67 499 70.582 499 75V323H51V75C51 70.582 54.582 67 59 67ZM355 483H195V467H355V483ZM337.938 451H212.062L218.062 403H331.938L337.938 451ZM491 387H59C54.582 387 51 383.418 51 379V339H499V379C499 383.418 495.418 387 491 387Z" fill="#09C269"/>
<path d="M435 355H467V371H435V355Z" fill="#09C269"/>
<path d="M99 139H163V155H99V139Z" fill="#09C269"/>
<path d="M115 171H163V187H115V171Z" fill="#09C269"/>
<path d="M131 203H163V219H131V203Z" fill="#09C269"/>
<path d="M83 203H115V219H83V203Z" fill="#09C269"/>
<path d="M99 235H163V251H99V235Z" fill="#09C269"/>
<path d="M83 171H99V187H83V171Z" fill="#09C269"/>
<path d="M67 139H83V155H67V139Z" fill="#09C269"/>
<path d="M67 235H83V251H67V235Z" fill="#09C269"/>
<path d="M195 275H419C423.25 275.02 427.332 273.344 430.336 270.336C433.344 267.332 435.02 263.25 435 259V131C435.016 126.754 433.336 122.672 430.332 119.668C427.328 116.664 423.246 114.984 419 115H195C190.754 114.988 186.676 116.668 183.672 119.672C180.668 122.676 178.988 126.754 179 131V259C179.059 263.348 180.816 267.504 183.902 270.566C186.898 273.414 190.871 275 195 275ZM294.633 196.887C302.234 201.48 311.758 201.48 319.359 196.887L332.031 189.289L406.703 259H207.297L281.969 189.289L294.633 196.887ZM346.313 180.727L419 137.113V248.602L346.313 180.727ZM311.113 183.184C308.582 184.699 305.418 184.699 302.887 183.184L215.902 131H398.121L311.113 183.184ZM267.695 180.727L195 248.602V137.113L267.695 180.727Z" fill="#09C269"/>
</svg>
