<svg width="550" height="550" viewBox="0 0 550 550" fill="none" xmlns="http://www.w3.org/2000/svg">
<path d="M507.798 511H485.865V192.536C485.865 177.713 473.805 165.654 458.983 165.654H409.959C395.136 165.654 383.077 177.714 383.077 192.536V511H327.385V336.825C327.385 322.002 315.326 309.943 300.503 309.943H251.479C236.656 309.943 224.597 322.003 224.597 336.825V511H168.905V420.796C168.905 405.973 156.845 393.914 142.023 393.914H92.998C78.175 393.914 66.116 405.974 66.116 420.796V511H43C37.477 511 33 515.477 33 521C33 526.523 37.477 531 43 531H507.798C513.321 531 517.798 526.523 517.798 521C517.798 515.477 513.321 511 507.798 511ZM148.903 511H86.115V420.796C86.115 417.001 89.202 413.914 92.997 413.914H142.021C145.816 413.914 148.903 417.001 148.903 420.796V511ZM307.384 511H244.596V336.825C244.596 333.03 247.683 329.943 251.478 329.943H300.502C304.296 329.943 307.384 333.03 307.384 336.825V511ZM465.865 511H403.077V192.536C403.077 188.741 406.164 185.654 409.959 185.654H458.983C462.778 185.654 465.865 188.741 465.865 192.536V511Z" fill="#09C269"/>
<path d="M485.841 29.516C485.981 26.787 485.021 24.012 482.937 21.928C480.853 19.844 478.078 18.883 475.349 19.024C475.188 19.017 475.029 19 474.865 19H414.365C408.842 19 404.365 23.477 404.365 29C404.365 34.523 408.842 39 414.365 39H451.722L352.865 137.858L315.585 100.578C313.71 98.703 311.166 97.649 308.514 97.649C305.862 97.649 303.318 98.703 301.443 100.578L121.674 280.348C117.769 284.253 117.769 290.585 121.674 294.491C123.627 296.442 126.186 297.418 128.745 297.418C131.304 297.418 133.864 296.442 135.816 294.489L308.514 121.79L345.794 159.07C349.699 162.975 356.031 162.975 359.937 159.07L465.865 53.143V86.953C465.865 92.476 470.342 96.953 475.865 96.953C481.388 96.953 485.865 92.476 485.865 86.953V30C485.865 29.837 485.848 29.678 485.841 29.516Z" fill="#09C269"/>
<path d="M95.0388 332.31C100.562 332.31 105.039 327.833 105.039 322.31C105.039 316.787 100.562 312.31 95.0388 312.31C89.516 312.31 85.0388 316.787 85.0388 322.31C85.0388 327.833 89.516 332.31 95.0388 332.31Z" fill="#09C269"/>
</svg>
