<svg width="550" height="550" viewBox="0 0 550 550" fill="none" xmlns="http://www.w3.org/2000/svg">
<path d="M459.242 516H422.641L426.64 371.528C427.265 348.923 414.318 328.379 393.655 319.19L350.978 300.211C350.72 300.096 350.459 300.001 350.196 299.917L344.171 294.77C374.619 285.535 397.388 274.231 398.467 273.692C402.154 271.849 403.65 267.352 401.833 263.653C401.68 263.342 386.581 231.8 386.581 162.774V130.709C386.581 69.112 336.468 19 274.871 19C213.274 19 163.162 69.112 163.162 130.709V162.774C163.162 231.8 148.062 263.342 147.922 263.629C146.069 267.334 147.571 271.839 151.276 273.692C152.363 274.235 175.129 285.539 205.57 294.772L198.73 300.615L156.96 319.191C136.297 328.379 123.35 348.923 123.975 371.529L127.974 516H90.5C86.358 516 83 519.358 83 523.5C83 527.642 86.358 531 90.5 531H459.242C463.384 531 466.742 527.642 466.742 523.5C466.742 519.358 463.384 516 459.242 516ZM178.16 130.711C178.162 77.384 221.545 34 274.871 34C328.197 34 371.581 77.384 371.581 130.709V162.774C371.581 217.567 380.653 249.892 385.482 263.216C375.506 267.728 354.675 276.522 330.503 283.095L327.839 280.82C326.342 279.541 324.404 278.917 322.452 279.051V260.404C336.501 251.303 347.953 238.191 354.997 222.236C359.12 212.899 361.438 202.524 361.702 192.233C362.569 158.407 333.549 149.839 302.824 140.768C277.085 133.169 247.911 124.557 223.988 101.286C221.018 98.398 216.271 98.464 213.383 101.432C210.495 104.402 210.56 109.15 213.529 112.038C240.11 137.893 272.529 147.464 298.577 155.155C331.469 164.865 347.255 170.481 346.707 191.848C346.493 200.202 344.615 208.615 341.275 216.178C329.66 242.486 303.594 259.485 274.871 259.485C239.842 259.485 209.826 234.486 203.499 200.044C202.085 192.344 194.956 186.756 187.277 187.318C186.437 187.38 185.578 187.306 184.714 187.102C180.979 186.218 178.161 182.2 178.161 177.756V171.604C178.161 167.051 181.14 163.095 185.091 162.402C188.346 161.83 191.475 163.03 193.455 165.612C194.891 167.484 196.803 168.822 198.984 169.481C202.179 170.446 205.703 169.881 208.413 167.968C214.973 163.338 220.534 157.464 224.94 150.51C227.157 147.011 226.119 142.378 222.62 140.16C219.121 137.943 214.488 138.982 212.27 142.48C209.589 146.711 206.359 150.407 202.641 153.504C197.287 148.557 189.884 146.331 182.497 147.627C180.99 147.892 179.543 148.312 178.16 148.856V130.711V130.711ZM242.289 295.254V268.192C252.408 272.251 263.413 274.483 274.87 274.483C286.246 274.483 297.27 272.261 307.451 268.171V295.253L284.814 326.734C284.788 326.77 284.767 326.809 284.741 326.846C284.716 326.882 284.687 326.915 284.662 326.952L275.3 340.995C275.246 341.076 275.147 341.225 274.87 341.225C274.593 341.225 274.494 341.076 274.44 340.995L265.078 326.952C265.053 326.915 265.024 326.882 264.999 326.846C264.973 326.809 264.953 326.77 264.926 326.734L242.289 295.254ZM248.458 329.523L237.643 337.634C235.613 339.157 233.033 339.696 230.563 339.113C228.094 338.53 226.026 336.894 224.892 334.625L212.059 308.957L225.446 297.521L248.458 329.523ZM324.297 297.521L337.685 308.957L324.851 334.625C323.716 336.895 321.649 338.53 319.18 339.113C316.71 339.696 314.13 339.157 312.1 337.635L301.285 329.523L324.297 297.521ZM164.26 263.217C167.871 253.255 173.852 232.666 176.641 200.011C178.104 200.732 179.642 201.315 181.259 201.698C183.586 202.248 185.949 202.446 188.281 202.284C188.454 202.354 188.705 202.607 188.746 202.753C193.235 227.193 207.615 247.683 227.29 260.426V279.051C225.337 278.917 223.4 279.541 221.903 280.82L219.24 283.095C195.066 276.521 174.234 267.728 164.26 263.217ZM163.054 332.896L199.216 316.814L211.475 341.333C214.605 347.592 220.306 352.104 227.116 353.711C228.915 354.136 230.735 354.345 232.544 354.345C237.581 354.345 242.523 352.724 246.643 349.635L256.997 341.869L261.962 349.316C264.846 353.643 269.672 356.226 274.872 356.226C280.072 356.226 284.898 353.643 287.782 349.316L292.746 341.869L303.1 349.635C307.22 352.724 312.162 354.345 317.199 354.345C319.007 354.345 320.828 354.136 322.627 353.711C329.438 352.104 335.138 347.592 338.268 341.333L350.686 316.497L387.562 332.896C390.459 334.184 393.145 335.78 395.596 337.631L368.334 371.709H182.284L155.021 337.631C157.471 335.781 160.157 334.185 163.054 332.896ZM156.099 396.547L162.334 508.772C162.475 511.315 163.023 513.742 163.902 516H142.981L138.969 371.113C138.747 363.096 140.869 355.438 144.833 348.909L166.349 375.803C164.96 376.747 163.665 377.837 162.499 379.07C158.074 383.748 155.741 390.118 156.099 396.547ZM378.669 395.716L372.434 507.942C372.183 512.461 368.441 516.001 363.915 516.001H185.828V516C181.302 516 177.56 512.46 177.309 507.941L171.074 395.715C170.943 393.35 171.767 391.1 173.395 389.379C175.023 387.658 177.224 386.711 179.593 386.711H370.15C372.519 386.711 374.72 387.658 376.348 389.379C377.976 391.1 378.8 393.35 378.669 395.716ZM407.635 516H385.842C386.721 513.742 387.269 511.315 387.41 508.773L393.645 396.548C394.002 390.118 391.669 383.748 387.245 379.07C386.236 378.004 385.13 377.047 383.953 376.196L405.783 348.908C409.746 355.438 411.868 363.097 411.646 371.113L407.635 516Z" fill="#09C269"/>
<path d="M274.871 427.822C259.685 427.822 247.33 440.176 247.33 455.363C247.33 470.55 259.684 482.904 274.871 482.904C290.058 482.904 302.412 470.55 302.412 455.363C302.412 440.176 290.057 427.822 274.871 427.822ZM274.871 467.903C267.956 467.903 262.33 462.277 262.33 455.362C262.33 448.447 267.955 442.821 274.871 442.821C281.787 442.821 287.412 448.447 287.412 455.362C287.412 462.277 281.786 467.903 274.871 467.903Z" fill="#09C269"/>
</svg>
